<svg xmlns="http://www.w3.org/2000/svg" width="23" height="30" viewBox="0 0 23 30">
  <g id="Doctor_" data-name="Doctor " transform="translate(-576 -187)">
    <path id="Path_2378" data-name="Path 2378" d="M584,218h-2v-2a1,1,0,0,0-2,0v2h-2a1,1,0,0,0,0,2h2v2a1,1,0,0,0,2,0v-2h2a1,1,0,0,0,0-2Z" transform="translate(0 -6)" fill="#bcbbbb"/>
    <path id="Path_2379" data-name="Path 2379" d="M598.87,209.507a13.13,13.13,0,0,0-5.414-4.417c-1.021-.428-1.456-.944-1.456-1.726v-2.178a8.548,8.548,0,0,0,4-6.822c0-3.992-3.893-7.364-8.5-7.364s-8.5,3.372-8.5,7.364a8.548,8.548,0,0,0,4,6.822v2.178c0,.782-.435,1.3-1.456,1.726a13.13,13.13,0,0,0-5.414,4.417.744.744,0,0,0,.378,1.114,1.168,1.168,0,0,0,.491.106,1.054,1.054,0,0,0,.871-.416,11.34,11.34,0,0,1,4.582-3.764c2.187,2.021,4.454,4.347,4.549,6.661a.638.638,0,0,0,.04.141.723.723,0,0,0,.041.146.823.823,0,0,0,.109.142.857.857,0,0,0,.1.115,1,1,0,0,0,.169.1,1.156,1.156,0,0,0,.141.076,1.267,1.267,0,0,0,.226.043,1.151,1.151,0,0,0,.141.027h.066a1.151,1.151,0,0,0,.141-.027,1.267,1.267,0,0,0,.226-.043,1.156,1.156,0,0,0,.141-.076,1,1,0,0,0,.169-.1.857.857,0,0,0,.1-.115.823.823,0,0,0,.109-.142.723.723,0,0,0,.041-.146.638.638,0,0,0,.04-.141c.09-2.2,2.135-4.4,4.211-6.346a11.531,11.531,0,0,1,3.92,3.449,1.054,1.054,0,0,0,.871.416,1.168,1.168,0,0,0,.491-.106A.744.744,0,0,0,598.87,209.507Zm-11.37-20.87a7.032,7.032,0,0,1,2.261.379c-1.852,3.623-7.593,5.064-8.759,5.321C581.019,191.245,583.987,188.636,587.5,188.636Zm-6.236,7.335a19.848,19.848,0,0,0,8.313-3.781,8.3,8.3,0,0,0,1.762,1.969,1.123,1.123,0,0,0,.656.2,1.111,1.111,0,0,0,.746-.273.721.721,0,0,0-.073-1.153,8.056,8.056,0,0,1-1.749-2.171,7.677,7.677,0,0,0,.572-.88A5.544,5.544,0,0,1,594,194.364c0,2.964-2.9,6.545-6.5,6.545C584.536,200.909,582.052,198.483,581.264,195.971Zm2.783,9.58a2.919,2.919,0,0,0,.953-2.188v-1.217a8.042,8.042,0,0,0,5,0v1.217a3.059,3.059,0,0,0,1.493,2.62,19.736,19.736,0,0,0-3.493,4.1A21.415,21.415,0,0,0,584.047,205.551Z" transform="translate(0 0)" fill="#bcbbbb"/>
  </g>
</svg>
