<svg xmlns="http://www.w3.org/2000/svg" width="23" height="30" viewBox="0 0 23 30">
  <g id="Patient" transform="translate(-638 -187)">
    <path id="Path_2381" data-name="Path 2381" d="M660.87,212.007a13.52,13.52,0,0,0-5.414-4.907c-1.021-.475-1.456-1.049-1.456-1.918v-2.42a9.745,9.745,0,0,0,4-7.58,8.506,8.506,0,0,0-17,0,9.745,9.745,0,0,0,4,7.58v2.42c0,.869-.435,1.443-1.456,1.918a13.52,13.52,0,0,0-5.414,4.907.865.865,0,0,0,.378,1.238,1.07,1.07,0,0,0,.491.118,1.02,1.02,0,0,0,.871-.462,11.688,11.688,0,0,1,4.582-4.182c2.187,2.245,4.454,4.83,4.549,7.4a.77.77,0,0,0,.04.156.874.874,0,0,0,.041.163.91.91,0,0,0,.109.157.933.933,0,0,0,.1.128.989.989,0,0,0,.169.111,1.123,1.123,0,0,0,.141.085,1.156,1.156,0,0,0,.226.048,1.015,1.015,0,0,0,.141.03h.066a1.046,1.046,0,0,0,.141-.03,1.156,1.156,0,0,0,.226-.048,1.123,1.123,0,0,0,.141-.085.989.989,0,0,0,.169-.111.933.933,0,0,0,.1-.128.91.91,0,0,0,.109-.157.874.874,0,0,0,.041-.163.77.77,0,0,0,.04-.156c.09-2.439,2.135-4.889,4.211-7.051a12.013,12.013,0,0,1,3.92,3.832,1.02,1.02,0,0,0,.871.462,1.07,1.07,0,0,0,.491-.118A.865.865,0,0,0,660.87,212.007ZM649.5,188.818a6.4,6.4,0,0,1,2.261.421c-1.852,4.025-7.593,5.626-8.759,5.913A6.519,6.519,0,0,1,649.5,188.818Zm-6.236,8.15a18.885,18.885,0,0,0,8.313-4.2,8.918,8.918,0,0,0,1.762,2.187,1.066,1.066,0,0,0,1.4-.077.856.856,0,0,0-.073-1.281,8.774,8.774,0,0,1-1.749-2.413,8.683,8.683,0,0,0,.572-.977A6.344,6.344,0,0,1,656,195.182c0,3.294-2.9,7.273-6.5,7.273C646.536,202.455,644.052,199.759,643.264,196.968Zm2.783,10.645a3.42,3.42,0,0,0,.953-2.431V203.83a7.28,7.28,0,0,0,5,0v1.352a3.494,3.494,0,0,0,1.493,2.911A21.506,21.506,0,0,0,650,212.648,23.252,23.252,0,0,0,646.047,207.613Z" fill="#bcbbbb"/>
  </g>
</svg>
